<svg width="0" height="0" class="hidden">
  <symbol xmlns="http://www.w3.org/2000/svg" viewBox="0 0 13 20" id="dollar">
    <path d="M5.76 19.0032V16.5032C4.08 16.3832 2.79333 15.9099 1.9 15.0832C1.02 14.2432 0.546667 13.1432 0.48 11.7832H4.18C4.3 12.8366 4.82667 13.4632 5.76 13.6632V10.7432C4 10.4899 2.73333 10.0166 1.96 9.32322C1.18667 8.61656 0.8 7.57656 0.8 6.20322C0.8 4.98989 1.24667 3.98322 2.14 3.18322C3.03333 2.38322 4.24 1.92989 5.76 1.82322V0.0432222H7.32V1.84322C10.3333 2.09655 11.9533 3.53656 12.18 6.16322H8.56C8.42667 5.34989 8.01333 4.84989 7.32 4.66322V7.42322C8.98667 7.66322 10.2467 8.10989 11.1 8.76322C11.9533 9.41656 12.38 10.4299 12.38 11.8032C12.38 13.0966 11.9533 14.1766 11.1 15.0432C10.2467 15.9099 8.98667 16.3966 7.32 16.5032V19.0032H5.76ZM8.66 12.2432C8.66 11.8966 8.56667 11.6366 8.38 11.4632C8.19333 11.2766 7.84 11.1232 7.32 11.0032V13.6632C8.21333 13.4766 8.66 13.0032 8.66 12.2432ZM4.4 5.90322C4.4 6.26322 4.49333 6.54322 4.68 6.74322C4.88 6.92989 5.24 7.07656 5.76 7.18322V4.62322C4.85333 4.78322 4.4 5.20989 4.4 5.90322Z" ></path>
  </symbol>
  <symbol xmlns="http://www.w3.org/2000/svg" viewBox="0 0 33 34" id="facebook">
    <path d="M30.7517 0.989624H1.29255C0.58409 0.989624 0.0117188 1.562 0.0117188 2.27046V31.7296C0.0117188 32.438 0.58409 33.0104 1.29255 33.0104H30.7517C31.4601 33.0104 32.0325 32.438 32.0325 31.7296V2.27046C32.0325 1.562 31.4601 0.989624 30.7517 0.989624ZM27.0533 10.3357H24.4956C22.4903 10.3357 22.1021 11.2883 22.1021 12.6892V15.7752H26.8892L26.2648 20.6064H22.1021V33.0104H17.1108V20.6104H12.9361V15.7752H17.1108V12.2129C17.1108 8.07822 19.6365 5.82476 23.3268 5.82476C25.096 5.82476 26.613 5.95685 27.0573 6.01689V10.3357H27.0533Z" ></path>
  </symbol>
  <symbol xmlns="http://www.w3.org/2000/svg" viewBox="0 0 34 28" id="twitter">
    <path d="M33.6845 3.68535C32.4597 4.2137 31.1269 4.59394 29.754 4.74204C31.1793 3.89523 32.2467 2.55742 32.7559 0.979599C31.4184 1.77527 29.9531 2.33321 28.4251 2.62867C27.7865 1.94593 27.0141 1.40203 26.156 1.03086C25.298 0.659692 24.3727 0.469204 23.4379 0.471269C19.6554 0.471269 16.6134 3.53726 16.6134 7.2997C16.6134 7.82804 16.6775 8.35639 16.7815 8.86472C11.1179 8.56852 6.0666 5.86277 2.70842 1.72008C2.09652 2.76522 1.77587 3.95523 1.77981 5.16632C1.77981 7.53585 2.9846 9.62521 4.82179 10.854C3.7391 10.8114 2.68177 10.5138 1.73579 9.98544V10.0695C1.73579 13.3876 4.08131 16.1374 7.20734 16.7698C6.62039 16.9223 6.01659 17.0003 5.41017 17.002C4.96588 17.002 4.54561 16.958 4.12133 16.8979C4.98589 19.6037 7.50353 21.569 10.5015 21.633C8.15595 23.4702 5.21805 24.5509 2.02798 24.5509C1.4556 24.5509 0.927262 24.5309 0.378906 24.4668C3.40487 26.4081 6.9952 27.5288 10.8617 27.5288C23.4139 27.5288 30.2823 17.1301 30.2823 8.10422C30.2823 7.80803 30.2823 7.51184 30.2623 7.21565C31.5912 6.24301 32.7559 5.03823 33.6845 3.68535Z" ></path>
  </symbol>
  <symbol xmlns="http://www.w3.org/2000/svg" viewBox="0 0 34 34" id="linkedin">
    <path d="M31.736 0.989624H2.27692C1.56847 0.989624 0.996094 1.562 0.996094 2.27046V31.7296C0.996094 32.438 1.56847 33.0104 2.27692 33.0104H31.736C32.4445 33.0104 33.0169 32.438 33.0169 31.7296V2.27046C33.0169 1.562 32.4445 0.989624 31.736 0.989624ZM10.4943 28.2753H5.74317V12.9934H10.4943V28.2753ZM8.12072 10.9041C7.57607 10.9041 7.04365 10.7425 6.59079 10.44C6.13794 10.1374 5.78498 9.70729 5.57655 9.2041C5.36812 8.70091 5.31359 8.14722 5.41984 7.61303C5.5261 7.07885 5.78837 6.58817 6.1735 6.20305C6.55862 5.81792 7.0493 5.55565 7.58348 5.4494C8.11766 5.34314 8.67136 5.39768 9.17455 5.6061C9.67773 5.81453 10.1078 6.16749 10.4104 6.62035C10.713 7.07321 10.8745 7.60562 10.8745 8.15027C10.8705 9.67126 9.6377 10.9041 8.12072 10.9041ZM28.2818 28.2753H23.5347V20.8425C23.5347 19.0694 23.5027 16.7919 21.0651 16.7919C18.5955 16.7919 18.2153 18.7211 18.2153 20.7144V28.2753H13.4722V12.9934H18.0271V15.0828H18.0912C18.7236 13.882 20.2726 12.6132 22.5861 12.6132C27.3972 12.6132 28.2818 15.7792 28.2818 19.8939V28.2753Z" ></path>
  </symbol>
   <symbol xmlns="http://www.w3.org/2000/svg" viewBox="0 0 27 22" id="email">
    <path d="M25.8125 0.904785H1.4375C0.918945 0.904785 0.5 1.32373 0.5 1.84229V20.5923C0.5 21.1108 0.918945 21.5298 1.4375 21.5298H25.8125C26.3311 21.5298 26.75 21.1108 26.75 20.5923V1.84229C26.75 1.32373 26.3311 0.904785 25.8125 0.904785ZM24.6406 4.15088V19.4204H2.60938V4.15088L1.80078 3.521L2.95215 2.0415L4.20605 3.01709H23.0469L24.3008 2.0415L25.4521 3.521L24.6406 4.15088ZM23.0469 3.01416L13.625 10.3384L4.20312 3.01416L2.94922 2.03857L1.79785 3.51807L2.60645 4.14795L12.6143 11.9292C12.9021 12.1528 13.2561 12.2742 13.6206 12.2742C13.9851 12.2742 14.3391 12.1528 14.627 11.9292L24.6406 4.15088L25.4492 3.521L24.2979 2.0415L23.0469 3.01416Z" ></path>
  </symbol>
  <symbol xmlns="http://www.w3.org/2000/svg" viewBox="0 0 21 33" id="phone">
    <path d="M16.5417 0.175781H4.875C2.45417 0.175781 0.5 2.12995 0.5 4.55078V27.8841C0.5 30.3049 2.45417 32.2591 4.875 32.2591H16.5417C18.9625 32.2591 20.9167 30.3049 20.9167 27.8841V4.55078C20.9167 2.12995 18.9625 0.175781 16.5417 0.175781ZM13.625 29.3424H7.79167V27.8841H13.625V29.3424ZM18.3646 24.9674H3.05208V4.55078H18.3646V24.9674Z" ></path>
  </symbol>
  <symbol  xmlns="http://www.w3.org/2000/svg" viewBox="0 0 26 33" id="location">
    <g clip-path="url(#clip0_67_7924)">
      <path d="M13.0013 19.884C16.4941 19.884 19.3346 17.0435 19.3346 13.5506C19.3346 10.0578 16.4941 7.21729 13.0013 7.21729C9.50847 7.21729 6.66797 10.0578 6.66797 13.5506C6.66797 17.0435 9.50847 19.884 13.0013 19.884ZM13.0013 10.384C14.7477 10.384 16.168 11.8042 16.168 13.5506C16.168 15.297 14.7477 16.7173 13.0013 16.7173C11.2549 16.7173 9.83464 15.297 9.83464 13.5506C9.83464 11.8042 11.2549 10.384 13.0013 10.384Z" ></path>
      <path d="M11.7485 32.256C12.0164 32.4473 12.3375 32.5502 12.6668 32.5502C12.9961 32.5502 13.3172 32.4473 13.5851 32.256C14.0665 31.9155 25.3794 23.7471 25.3335 13.5505C25.3335 6.56637 19.6509 0.883789 12.6668 0.883789C5.68272 0.883789 0.000139393 6.56637 0.000139393 13.5425C-0.0457773 23.7471 11.2671 31.9155 11.7485 32.256ZM12.6668 4.05046C17.9061 4.05046 22.1668 8.31121 22.1668 13.5584C22.2001 20.5852 15.2191 26.8948 12.6668 28.9642C10.1161 26.8932 3.13356 20.582 3.16681 13.5505C3.16681 8.31121 7.42756 4.05046 12.6668 4.05046Z" ></path>
    </g>
    <defs>
      <clipPath id="clip0_67_7924">
        <rect width="26" height="32" fill="white" transform="translate(0 0.717285)"></rect>
      </clipPath>
    </defs>
  </symbol>
</svg>
<svg class="icon">
  <use xlink:href="#dollar"></use>
</svg><svg class="icon">
  <use xlink:href="#facebook"></use>
</svg><svg class="icon">
  <use xlink:href="#twitter"></use>
</svg><svg class="icon">
  <use xlink:href="#linkedin"></use>
</svg><svg class="icon">
  <use xlink:href="#phone"></use>
</svg><svg class="icon">
  <use xlink:href="#email"></use>
</svg><svg class="icon">
  <use xlink:href="#location"></use>
</svg>